# xmcd CD database file
#
# Track frame offsets:
#	150
#	16095
#	29038
#	46428
#	65693
#	78740
#	93050
#	110583
#	129573
#	143185
#	157183
#	173630
#	186278
#	205755
#	220340
#	239988
#	258610
#	275538
#
# Disc length: 3897 seconds
#
# Revision: 2
# Processed by: cddbd v1.4b41PL1 Copyright (c) Steve Scherf et al.
# Submitted via: Feurio! 1.51.6ß - http://www.feurio.com
#
DISCID=160f3712
DTITLE=Kenny Rogers - Twice As Much 1/2
DYEAR=1900
DGENRE=
TTITLE0=The Gambler
TTITLE1=You Are So Beautiful
TTITLE2=We've Got Tonight - with Sheena Easton
TTITLE3=Sweet Music Man
TTITLE4=Love Or Something Like That
TTITLE5=Daytime Friends
TTITLE6=Lady
TTITLE7=She Believes In Me
TTITLE8=Every Time Two Fools Collide - with Dottie West
TTITLE9=Today I Started Loving You Again
TTITLE10=You Decorated My Life
TTITLE11=Goodbye Marie
TTITLE12=Long Arm Of The Law
TTITLE13=But You Know I Love You
TTITLE14=Through The Years
TTITLE15=You've Lost The Lovin' Feeling
TTITLE16=Desperado
TTITLE17=Love Lifted Me
EXTD=
EXTT0=
EXTT1=
EXTT2=
EXTT3=
EXTT4=
EXTT5=
EXTT6=
EXTT7=
EXTT8=
EXTT9=
EXTT10=
EXTT11=
EXTT12=
EXTT13=
EXTT14=
EXTT15=
EXTT16=
EXTT17=
PLAYORDER=
